<svg width="841" height="1200" viewBox="0 0 841 1200" fill="none" xmlns="http://www.w3.org/2000/svg">
<path fill-rule="evenodd" clip-rule="evenodd" d="M1189.98 27.561H1190C1425.4 -29.6245 1594.42 -158.228 1701.65 -264.626C1859.89 -421.659 1925.77 -579.626 1928.5 -586.273L1764.2 -653.663C1762.03 -648.368 1539.69 -124.125 907.828 -124.125C851.24 -124.125 798.967 -129.015 750.647 -137.893L746.831 -139.331C746.745 -139.101 746.661 -138.873 746.574 -138.644C259.613 -230.818 179.229 -731.816 175.79 -755L0 -729.857C1.145 -721.848 29.492 -531.454 153.911 -340.425C229.312 -224.653 349.874 -94.562 536.051 -16.659L150.92 1407.42L841.254 1515.25V881.505C844.188 885.249 847.148 888.987 850.15 892.716C1024.25 1109 1301.4 1239.13 1546.52 1239.12C1628.18 1239.12 1706.31 1224.67 1775.86 1194.16L1585.61 760.523C1534.3 783.042 1337.54 743.01 1219.02 595.784C1135.24 491.707 1063.99 362.101 1189.98 27.561Z" fill="#FA7850"/>
</svg>
